# xmcd CD database file
#
# Track frame offsets:
#	150
#	6135
#	43160
#	57720
#	85292
#	102677
#	120047
#	139932
#	162027
#	195252
#	228150
#	238662
#
# Disc length: 3464 seconds
#
# Revision: 1
# Processed by: cddbd v1.5.1PL0 Copyright (c) Steve Scherf et al.
# Submitted via: CDex 1.51
#
DISCID=970d860c
DTITLE=Marco Di Marco Feat.NathanHaines - MyLondonFriends
DYEAR=2004
DGENRE=Jazz
TTITLE0=Interlude At Down
TTITLE1=Brazilian Waltz
TTITLE2=Walking in St.James'Park
TTITLE3=Up West
TTITLE4=Repeat After Me
TTITLE5=Solaria
TTITLE6=Take Off
TTITLE7=Jumpy
TTITLE8=Winding Dance
TTITLE9=Soft Rain,Gentle Breeze
TTITLE10=The Twilight Interlude
TTITLE11=Take Off(Nicora Conte Campi's Idea Version)
EXTD=YEAR: 2004
EXTT0=
EXTT1=
EXTT2=
EXTT3=
EXTT4=
EXTT5=
EXTT6=
EXTT7=
EXTT8=
EXTT9=
EXTT10=
EXTT11=
PLAYORDER=
